<mxfile host="app.diagrams.net" modified="2021-05-22T02:20:13.357Z" agent="5.0 (Windows NT 10.0; Win64; x64) AppleWebKit/537.36 (KHTML, like Gecko) Chrome/90.0.4430.212 Safari/537.36" etag="HxQYXEMxgXHizXqCMNXi" version="14.7.0" type="github">
  <diagram id="BKQgu_Wh111UKU4QTrlC" name="Page-1">
    <mxGraphModel dx="1422" dy="794" grid="1" gridSize="10" guides="1" tooltips="1" connect="1" arrows="1" fold="1" page="1" pageScale="1" pageWidth="827" pageHeight="1169" math="0" shadow="0">
      <root>
        <mxCell id="0" />
        <mxCell id="1" parent="0" />
        <mxCell id="NU3DuB7vzdQvFyOtvy02-3" value="" style="edgeStyle=orthogonalEdgeStyle;rounded=0;orthogonalLoop=1;jettySize=auto;html=1;" edge="1" parent="1" source="NU3DuB7vzdQvFyOtvy02-1" target="NU3DuB7vzdQvFyOtvy02-2">
          <mxGeometry relative="1" as="geometry" />
        </mxCell>
        <mxCell id="NU3DuB7vzdQvFyOtvy02-1" value="" style="rounded=1;whiteSpace=wrap;html=1;" vertex="1" parent="1">
          <mxGeometry x="320" y="200" width="120" height="60" as="geometry" />
        </mxCell>
        <mxCell id="NU3DuB7vzdQvFyOtvy02-2" value="" style="whiteSpace=wrap;html=1;rounded=1;" vertex="1" parent="1">
          <mxGeometry x="320" y="340" width="120" height="60" as="geometry" />
        </mxCell>
      </root>
    </mxGraphModel>
  </diagram>
</mxfile>
